<?xml version="1.0" standalone="no"?>
<!DOCTYPE svg PUBLIC "-//W3C//DTD SVG 20010904//EN"
 "http://www.w3.org/TR/2001/REC-SVG-20010904/DTD/svg10.dtd">
<svg version="1.0" xmlns="http://www.w3.org/2000/svg"
 width="500.000000pt" height="500.000000pt" viewBox="0 0 500.000000 500.000000"
 preserveAspectRatio="xMidYMid meet">

<g transform="translate(0.000000,500.000000) scale(0.100000,-0.100000)"
fill="#000000" stroke="none">
<path d="M2482 3303 c3 -133 5 -158 18 -158 13 0 15 24 15 155 0 140 -2 155
-18 158 -16 3 -17 -8 -15 -155z"/>
<path d="M2174 3236 c-7 -17 51 -146 65 -146 18 0 13 27 -18 95 -31 67 -38 75
-47 51z"/>
<path d="M2803 3238 c-15 -20 -53 -115 -53 -133 0 -34 25 -6 54 59 19 45 26
70 19 77 -7 7 -13 6 -20 -3z"/>
<path d="M1790 3166 c0 -14 209 -217 230 -224 33 -11 -4 37 -98 131 -103 103
-132 123 -132 93z"/>
<path d="M3077 3072 c-93 -93 -129 -142 -98 -130 22 7 231 211 231 224 0 31
-30 10 -133 -94z"/>
<path d="M2383 2985 c-35 -8 -90 -28 -124 -46 -353 -189 -383 -678 -55 -904
l56 -38 0 -179 c0 -276 10 -288 238 -288 234 0 242 10 242 281 l0 187 49 31
c95 61 170 159 212 277 31 87 32 236 1 326 -91 263 -351 411 -619 353z m272
-45 c83 -29 138 -65 203 -135 101 -108 137 -207 130 -364 -3 -92 -6 -105 -45
-182 -45 -90 -104 -157 -189 -212 l-49 -32 -3 -83 -3 -82 -44 0 -45 0 0 234 0
234 33 7 c52 12 86 33 103 67 34 65 -6 158 -68 158 -65 0 -90 -34 -98 -130
l-5 -65 -75 0 -75 0 -5 65 c-8 96 -33 130 -98 130 -62 0 -102 -93 -68 -158 17
-34 51 -55 104 -67 l32 -7 0 -234 0 -234 -50 0 -50 0 0 84 0 84 -49 31 c-54
35 -136 118 -168 171 -89 146 -86 366 5 510 71 112 210 208 333 229 71 13 176
4 244 -19z m-286 -446 c16 -20 21 -41 21 -86 l0 -58 -27 6 c-66 15 -99 56 -89
110 11 57 61 71 95 28z m328 18 c18 -12 34 -61 27 -87 -8 -32 -36 -55 -78 -65
l-36 -8 0 58 c0 81 42 131 87 102z m-119 -429 l2 -233 -80 0 -80 0 0 235 0
236 78 -3 77 -3 3 -232z m122 -293 l0 -30 -200 0 c-169 0 -202 2 -206 15 -4 8
-4 22 0 30 4 13 37 15 206 15 l200 0 0 -30z m0 -90 l0 -30 -200 0 c-169 0
-202 2 -206 15 -4 8 -4 22 0 30 4 13 37 15 206 15 l200 0 0 -30z m0 -73 c0 -8
-12 -24 -26 -38 -25 -23 -31 -24 -174 -24 -143 0 -149 1 -174 24 -52 48 -43
51 174 51 159 0 200 -3 200 -13z"/>
<path d="M1725 2799 c-9 -14 -10 -14 70 -48 44 -18 74 -26 80 -20 13 13 -1 24
-74 53 -75 30 -68 29 -76 15z"/>
<path d="M3195 2783 c-68 -28 -80 -37 -71 -51 8 -13 158 47 153 61 -6 18 -20
16 -82 -10z"/>
<path d="M1507 2494 c-20 -20 7 -24 159 -24 128 0 165 3 162 13 -4 9 -46 13
-159 15 -86 1 -158 -1 -162 -4z"/>
<path d="M3177 2494 c-20 -20 7 -24 159 -24 128 0 165 3 162 13 -4 9 -46 13
-159 15 -86 1 -158 -1 -162 -4z"/>
<path d="M1791 2211 c-65 -27 -90 -51 -52 -51 32 0 141 51 141 66 0 19 -15 17
-89 -15z"/>
<path d="M3122 2224 c3 -17 107 -64 141 -64 36 0 11 21 -58 51 -80 34 -88 35
-83 13z"/>
<path d="M1897 1912 c-102 -102 -123 -132 -94 -132 16 0 227 211 227 228 0 28
-31 6 -133 -96z"/>
<path d="M2970 2007 c0 -16 211 -227 228 -227 28 0 6 31 -96 133 -102 102
-132 123 -132 94z"/>
</g>
</svg>
